<?xml version="1.0" encoding="utf-8"?>
<svg width="229" height="105" viewBox="0 0 229 105" fill="none" xmlns="http://www.w3.org/2000/svg" xmlnsBx="https://boxy-svg.com">
  <path d="M2 50.9157C2 72.4157 17.9708 71.4158 17.9708 81.9158V97.4158C17.9708 103.916 30.4119 101.986 33.9415 102.416L211.029 102.416C214.559 101.986 227 103.916 227 97.4158V81.9158C227 71.4158 211.029 72.4158 211.029 50.9158C211.029 29.4158 227 31.9158 227 20.9158V7.41576C227 0.915764 210.986 2.26618 210.986 2.26618L33.9843 2.26617C27.464 2.26617 17.9708 0.915757 17.9708 7.41576V20.9158C17.9708 31.9158 2 29.4157 2 50.9157Z" fill="#00FF50" stroke="#C2AF00" stroke-opacity="0.66" stroke-width="4"/>
  <rect x="147.592" y="28" width="52.408" height="50" rx="10" fill="#D9D9D9" style=""/>
  <rect x="48.673" y="28" width="52.408" height="50" rx="10" fill="#D9D9D9" style=""/>
  <path d="M 120.034 41.592 H 124.977 V 50.89 H 134.274 V 55.833 H 124.977 V 65.13 H 120.034 V 55.833 H 110.736 V 50.89 H 120.034 Z" style="stroke: rgb(255, 255, 255); fill: rgb(255, 255, 255);" transform="matrix(0.707107, -0.707107, 0.707107, 0.707107, 0.626354, 102.253502)" bxShape="cross 110.736 41.592 23.538 23.538 4.943 4.943 0.5 1@e1670175"/>
</svg>