<?xml version="1.0" encoding="utf-8"?>
<svg viewBox="18.627 113.986 182.968 100.151" width="182.968" height="100.151" xmlns="http://www.w3.org/2000/svg">
  <path d="M 87.465 114.136 L 176.72 114.136 C 186.875 114.136 201.595 112.636 201.595 119.136 L 201.595 132.636 C 201.595 143.636 176.72 141.136 176.72 162.636 C 176.72 184.136 201.595 183.136 201.595 193.636 L 201.595 209.136 C 201.595 215.637 182.218 213.707 176.72 214.137 L 87.465 214.137 C 69.175 214.137 16.499 205.136 18.694 164.136 C 20.45 131.336 65.272 115.97 87.465 114.136 Z" fill="#00FF50" stroke="#C2AF00" stroke-opacity="0.66" stroke-width="4" style=""/>
  <path d="M 80.513 161.667 C 80.513 173.325 72.146 183.064 61.103 185.199 L 61.103 191.659 L 43.544 181.59 L 61.103 171.521 L 61.103 177.435 C 67.944 175.454 72.961 169.137 72.961 161.667 C 72.961 152.614 65.596 145.25 56.544 145.25 C 47.492 145.25 40.128 152.614 40.128 161.667 C 40.128 164.104 40.648 166.449 41.674 168.636 L 34.84 171.847 C 33.337 168.648 32.575 165.223 32.575 161.667 C 32.576 148.45 43.328 137.698 56.544 137.698 C 69.761 137.698 80.513 148.45 80.513 161.667 Z" style=""/>
  <rect x="86.1" y="137.303" width="85" height="50" rx="10" fill="#D9D9D9"/>
</svg>