<svg width="229" height="105" viewBox="0 0 229 105" fill="none" xmlns="http://www.w3.org/2000/svg">
<path d="M2 50.9158C2 72.4158 17.7732 71.4158 17.7732 81.9158V97.4158C17.7732 103.916 30.0604 101.986 33.5464 102.416L211.227 102.266C214.713 101.837 227 103.766 227 97.266V81.766C227 71.266 211.227 72.2659 211.227 50.7659C211.227 29.2659 227 31.7659 227 20.7659V7.26595C227 0.765946 211.185 2.11636 211.185 2.11636L33.5886 2.26616C27.1489 2.26616 17.7732 0.915748 17.7732 7.41575V20.9157C17.7732 31.9157 2 29.4158 2 50.9158Z" fill="#00FF50" stroke="#C2AF00" stroke-opacity="0.66" stroke-width="4"/>
<path d="M30.8943 39.4V36.08H38.4143V65H34.7343V39.4H30.8943ZM44.2268 62.08C47.6135 59.36 50.2668 57.1333 52.1868 55.4C54.1068 53.64 55.7202 51.8133 57.0268 49.92C58.3602 48 59.0268 46.12 59.0268 44.28C59.0268 42.5467 58.6002 41.1867 57.7468 40.2C56.9202 39.1867 55.5735 38.68 53.7068 38.68C51.8935 38.68 50.4802 39.2533 49.4668 40.4C48.4802 41.52 47.9468 43.0267 47.8668 44.92H44.3468C44.4535 41.9333 45.3602 39.6267 47.0668 38C48.7735 36.3733 50.9735 35.56 53.6668 35.56C56.4135 35.56 58.5868 36.32 60.1868 37.84C61.8135 39.36 62.6268 41.4533 62.6268 44.12C62.6268 46.3333 61.9602 48.4933 60.6268 50.6C59.3202 52.68 57.8268 54.52 56.1468 56.12C54.4668 57.6933 52.3202 59.5333 49.7068 61.64H63.4668V64.68H44.2268V62.08ZM67.5947 43.36C67.7813 40.9067 68.728 38.9867 70.4347 37.6C72.1413 36.2133 74.3547 35.52 77.0747 35.52C78.888 35.52 80.448 35.8533 81.7547 36.52C83.088 37.16 84.088 38.04 84.7547 39.16C85.448 40.28 85.7947 41.5467 85.7947 42.96C85.7947 44.6133 85.3147 46.04 84.3547 47.24C83.4213 48.44 82.1947 49.2133 80.6747 49.56V49.76C82.408 50.1867 83.7813 51.0267 84.7947 52.28C85.808 53.5333 86.3147 55.1733 86.3147 57.2C86.3147 58.72 85.968 60.0933 85.2747 61.32C84.5813 62.52 83.5413 63.4667 82.1547 64.16C80.768 64.8533 79.1013 65.2 77.1547 65.2C74.328 65.2 72.008 64.4667 70.1947 63C68.3813 61.5067 67.368 59.4 67.1547 56.68H70.6747C70.8613 58.28 71.5147 59.5867 72.6347 60.6C73.7547 61.6133 75.248 62.12 77.1147 62.12C78.9813 62.12 80.3947 61.64 81.3547 60.68C82.3413 59.6933 82.8347 58.4267 82.8347 56.88C82.8347 54.88 82.168 53.44 80.8347 52.56C79.5013 51.68 77.488 51.24 74.7947 51.24H73.8747V48.2H74.8347C77.288 48.1733 79.1413 47.7733 80.3947 47C81.648 46.2 82.2747 44.9733 82.2747 43.32C82.2747 41.9067 81.808 40.7733 80.8747 39.92C79.968 39.0667 78.6613 38.64 76.9547 38.64C75.3013 38.64 73.968 39.0667 72.9547 39.92C71.9413 40.7733 71.3413 41.92 71.1547 43.36H67.5947Z" fill="white"/>
<rect x="108" y="25" width="85" height="50" rx="10" fill="#D9D9D9"/>
</svg>
