<svg width="229" height="105" viewBox="0 0 229 105" fill="none" xmlns="http://www.w3.org/2000/svg">
<path d="M2 50.9158C2 72.4158 18.9248 71.4158 18.9248 81.9158V97.4158C18.9248 103.916 32.1091 101.986 35.8495 102.416L210.075 102.416C213.816 101.986 227 103.916 227 97.4158V81.9158C227 71.4158 210.075 72.4158 210.075 50.9158C210.075 29.4158 227 31.9158 227 20.9158V7.41576C227 0.915757 210.03 2.26617 210.03 2.26617L35.8948 2.26619C28.985 2.26619 18.9248 0.915773 18.9248 7.41577V20.9158C18.9248 31.9158 2 29.4158 2 50.9158Z" fill="#00FF50" stroke="#C2AF00" stroke-opacity="0.66" stroke-width="4"/>
<path d="M22.0403 52.96C22.0403 50.72 22.4936 48.76 23.4003 47.08C24.307 45.3734 25.547 44.0534 27.1203 43.12C28.7203 42.1867 30.4936 41.72 32.4403 41.72C34.3603 41.72 36.027 42.1334 37.4403 42.96C38.8536 43.7867 39.907 44.8267 40.6003 46.08V42.08H44.2803V64H40.6003V59.92C39.8803 61.2 38.8003 62.2667 37.3603 63.12C35.947 63.9467 34.2936 64.36 32.4003 64.36C30.4536 64.36 28.6936 63.88 27.1203 62.92C25.547 61.96 24.307 60.6134 23.4003 58.88C22.4936 57.1467 22.0403 55.1734 22.0403 52.96ZM40.6003 53C40.6003 51.3467 40.267 49.9067 39.6003 48.68C38.9336 47.4534 38.027 46.52 36.8803 45.88C35.7603 45.2134 34.5203 44.88 33.1603 44.88C31.8003 44.88 30.5603 45.2 29.4403 45.84C28.3203 46.48 27.427 47.4134 26.7603 48.64C26.0936 49.8667 25.7603 51.3067 25.7603 52.96C25.7603 54.64 26.0936 56.1067 26.7603 57.36C27.427 58.5867 28.3203 59.5334 29.4403 60.2C30.5603 60.84 31.8003 61.16 33.1603 61.16C34.5203 61.16 35.7603 60.84 36.8803 60.2C38.027 59.5334 38.9336 58.5867 39.6003 57.36C40.267 56.1067 40.6003 54.6534 40.6003 53ZM54.0716 46.16C54.8182 44.8534 55.9116 43.7867 57.3516 42.96C58.7916 42.1334 60.4316 41.72 62.2716 41.72C64.2449 41.72 66.0182 42.1867 67.5916 43.12C69.1649 44.0534 70.4049 45.3734 71.3116 47.08C72.2182 48.76 72.6716 50.72 72.6716 52.96C72.6716 55.1734 72.2182 57.1467 71.3116 58.88C70.4049 60.6134 69.1516 61.96 67.5516 62.92C65.9782 63.88 64.2182 64.36 62.2716 64.36C60.3782 64.36 58.7116 63.9467 57.2716 63.12C55.8582 62.2934 54.7916 61.24 54.0716 59.96V64H50.4316V34.4H54.0716V46.16ZM68.9516 52.96C68.9516 51.3067 68.6182 49.8667 67.9516 48.64C67.2849 47.4134 66.3782 46.48 65.2316 45.84C64.1116 45.2 62.8716 44.88 61.5116 44.88C60.1782 44.88 58.9382 45.2134 57.7916 45.88C56.6716 46.52 55.7649 47.4667 55.0716 48.72C54.4049 49.9467 54.0716 51.3734 54.0716 53C54.0716 54.6534 54.4049 56.1067 55.0716 57.36C55.7649 58.5867 56.6716 59.5334 57.7916 60.2C58.9382 60.84 60.1782 61.16 61.5116 61.16C62.8716 61.16 64.1116 60.84 65.2316 60.2C66.3782 59.5334 67.2849 58.5867 67.9516 57.36C68.6182 56.1067 68.9516 54.64 68.9516 52.96ZM76.1028 53C76.1028 50.7334 76.5561 48.76 77.4628 47.08C78.3695 45.3734 79.6228 44.0534 81.2228 43.12C82.8495 42.1867 84.7028 41.72 86.7828 41.72C89.4761 41.72 91.6895 42.3734 93.4228 43.68C95.1828 44.9867 96.3428 46.8 96.9028 49.12H92.9828C92.6095 47.7867 91.8761 46.7334 90.7828 45.96C89.7161 45.1867 88.3828 44.8 86.7828 44.8C84.7028 44.8 83.0228 45.52 81.7428 46.96C80.4628 48.3734 79.8228 50.3867 79.8228 53C79.8228 55.64 80.4628 57.68 81.7428 59.12C83.0228 60.56 84.7028 61.28 86.7828 61.28C88.3828 61.28 89.7161 60.9067 90.7828 60.16C91.8495 59.4134 92.5828 58.3467 92.9828 56.96H96.9028C96.3161 59.2 95.1428 61 93.3828 62.36C91.6228 63.6934 89.4228 64.36 86.7828 64.36C84.7028 64.36 82.8495 63.8934 81.2228 62.96C79.6228 62.0267 78.3695 60.7067 77.4628 59C76.5561 57.2934 76.1028 55.2934 76.1028 53Z" fill="white"/>
<rect x="113" y="28" width="85" height="50" rx="10" fill="#D9D9D9"/>
</svg>
