<svg width="229" height="105" viewBox="0 0 229 105" fill="none" xmlns="http://www.w3.org/2000/svg">
<path d="M2 50.9157C2 72.4157 17.9708 71.4158 17.9708 81.9158V97.4158C17.9708 103.916 30.4119 101.986 33.9415 102.416L211.029 102.416C214.559 101.986 227 103.916 227 97.4158V81.9158C227 71.4158 211.029 72.4158 211.029 50.9158C211.029 29.4158 227 31.9158 227 20.9158V7.41576C227 0.915764 210.986 2.26618 210.986 2.26618L33.9843 2.26617C27.464 2.26617 17.9708 0.915757 17.9708 7.41576V20.9158C17.9708 31.9158 2 29.4157 2 50.9157Z" fill="#00FF50" stroke="#C2AF00" stroke-opacity="0.66" stroke-width="4"/>
<g clip-path="url(#clip0_9_9)">
<path d="M63.2279 89C53.5214 89 44.3961 85.2034 37.5328 78.3094C30.6692 71.4153 26.8894 62.2493 26.8894 52.5C26.8894 42.7507 30.6692 33.5847 37.5328 26.6906C44.3961 19.7966 53.5214 16 63.2279 16C72.9343 16 82.0596 19.7966 88.923 26.6906C95.7866 33.5847 99.5664 42.7507 99.5664 52.5C99.5664 62.2493 95.7866 71.4153 88.923 78.3094C82.0596 85.2034 72.9343 89 63.2279 89ZM63.2279 18.9084C54.295 18.9084 45.8967 22.4025 39.5802 28.7471C33.2635 35.092 29.7849 43.5274 29.7849 52.5C29.7849 61.4726 33.2635 69.908 39.5802 76.2529C45.8967 82.5975 54.295 86.0916 63.2279 86.0916C72.1608 86.0916 80.559 82.5975 86.8756 76.2529C93.1922 69.908 96.6709 61.4726 96.6709 52.5C96.6709 43.5274 93.1922 35.092 86.8756 28.7471C80.559 22.4025 72.1608 18.9084 63.2279 18.9084ZM63.2279 80.165C48.0408 80.165 35.6853 67.7545 35.6853 52.5C35.6853 37.2455 48.0408 24.835 63.2279 24.835C78.4149 24.835 90.7704 37.2455 90.7704 52.5C90.7704 67.7545 78.4149 80.165 63.2279 80.165ZM63.2279 27.7434C49.6374 27.7434 38.5808 38.8491 38.5808 52.5C38.5808 66.1509 49.6374 77.2566 63.2279 77.2566C76.8183 77.2566 87.8749 66.1509 87.8749 52.5C87.8749 38.8491 76.8183 27.7434 63.2279 27.7434Z" fill="white"/>
<path d="M76.5472 54.245C77.3466 54.245 77.9949 53.594 77.9949 52.7909C77.9949 51.9877 77.3466 51.3367 76.5472 51.3367H64.5309V31.5598C64.5309 30.7566 63.8825 30.1056 63.0831 30.1056C62.2837 30.1056 61.6354 30.7566 61.6354 31.5598V52.7909C61.6354 53.594 62.2837 54.245 63.0831 54.245H76.5472Z" fill="white"/>
<path d="M63.0831 74.8944C54.1991 74.8944 46.2332 69.579 42.7894 61.3526C42.4793 60.6123 42.8256 59.7597 43.5628 59.4484C44.2993 59.1373 45.1484 59.4847 45.4585 60.2252C48.4495 67.3696 55.3675 71.9861 63.0831 71.9861C63.8826 71.9861 64.5309 72.6371 64.5309 73.4402C64.5309 74.2434 63.8826 74.8944 63.0831 74.8944Z" fill="white"/>
<path d="M42.7464 57.2991C42.0408 57.2991 41.4226 56.7801 41.3162 56.058C41.1577 54.9836 41.0773 53.8845 41.0773 52.7909C41.0773 51.9877 41.7256 51.3367 42.5251 51.3367C43.3245 51.3367 43.9728 51.9877 43.9728 52.7909C43.9728 53.7422 44.0426 54.698 44.1804 55.6315C44.2977 56.4259 43.7516 57.1653 42.9606 57.2831C42.8887 57.2939 42.8172 57.2991 42.7464 57.2991Z" fill="white"/>
</g>
<rect x="115" y="28" width="85" height="50" rx="10" fill="#D9D9D9"/>
<defs>
<clipPath id="clip0_9_9">
<rect width="72.677" height="73" fill="white" transform="translate(26.8894 16)"/>
</clipPath>
</defs>
</svg>
